solid OpenSCAD_Model
  facet normal 0.069476 -0.705398 -0.705398
    outer loop
      vertex 0.975451 -4.90393 1
      vertex 0 -5 1
      vertex 0 -4 0
    endloop
  endfacet
  facet normal 0.705398 0.069476 -0.705398
    outer loop
      vertex 5 0 1
      vertex 4 0 0
      vertex 4.90393 0.975451 1
    endloop
  endfacet
  facet normal 0.705398 0.0694762 -0.705398
    outer loop
      vertex 4 0 0
      vertex 3.92314 0.780361 0
      vertex 4.90393 0.975451 1
    endloop
  endfacet
  facet normal 0.705398 -0.0694762 -0.705398
    outer loop
      vertex 4.90393 -0.975451 1
      vertex 3.92314 -0.780361 0
      vertex 4 0 0
    endloop
  endfacet
  facet normal -0.705398 -0.0694762 -0.705398
    outer loop
      vertex -3.92314 -0.780361 0
      vertex -4.90393 -0.975451 1
      vertex -4 0 0
    endloop
  endfacet
  facet normal -0.705398 0.0694762 -0.705398
    outer loop
      vertex -4 0 0
      vertex -4.90393 0.975451 1
      vertex -3.92314 0.780361 0
    endloop
  endfacet
  facet normal 0.67829 -0.205757 -0.705398
    outer loop
      vertex 4.6194 -1.91342 1
      vertex 3.92314 -0.780361 0
      vertex 4.90393 -0.975451 1
    endloop
  endfacet
  facet normal -0.205757 0.67829 -0.705398
    outer loop
      vertex -0.780361 3.92314 0
      vertex -1.91342 4.6194 1
      vertex -0.975451 4.90393 1
    endloop
  endfacet
  facet normal 0.547918 -0.449665 -0.705399
    outer loop
      vertex 3.53553 -3.53553 1
      vertex 2.82843 -2.82843 0
      vertex 3.32588 -2.22228 0
    endloop
  endfacet
  facet normal 0.705398 -0.069476 -0.705398
    outer loop
      vertex 4.90393 -0.975451 1
      vertex 4 0 0
      vertex 5 0 1
    endloop
  endfacet
  facet normal 0.205757 -0.67829 -0.705398
    outer loop
      vertex 1.91342 -4.6194 1
      vertex 0.780361 -3.92314 0
      vertex 1.53073 -3.69552 0
    endloop
  endfacet
  facet normal 0.449665 -0.547919 -0.705398
    outer loop
      vertex 2.77785 -4.15735 1
      vertex 2.22228 -3.32588 0
      vertex 3.53553 -3.53553 1
    endloop
  endfacet
  facet normal -0.0694762 -0.705398 -0.705398
    outer loop
      vertex 0 -4 0
      vertex -0.975451 -4.90393 1
      vertex -0.780361 -3.92314 0
    endloop
  endfacet
  facet normal -0.625116 -0.334131 -0.705398
    outer loop
      vertex -3.32588 -2.22228 0
      vertex -4.6194 -1.91342 1
      vertex -3.69552 -1.53073 0
    endloop
  endfacet
  facet normal -0.449665 -0.547919 -0.705398
    outer loop
      vertex -2.77785 -4.15735 1
      vertex -3.53553 -3.53553 1
      vertex -2.22228 -3.32588 0
    endloop
  endfacet
  facet normal -0.0694762 0.705398 -0.705398
    outer loop
      vertex -0.780361 3.92314 0
      vertex -0.975451 4.90393 1
      vertex 0 4 0
    endloop
  endfacet
  facet normal 0 0 1
    outer loop
      vertex 2.5 0 1
      vertex 5 0 1
      vertex 4.90393 0.975451 1
    endloop
  endfacet
  facet normal 0 0 1
    outer loop
      vertex 2.3097 0.956708 1
      vertex 4.90393 0.975451 1
      vertex 4.6194 1.91342 1
    endloop
  endfacet
  facet normal 0 0 1
    outer loop
      vertex 5 0 1
      vertex 2.5 0 1
      vertex 4.90393 -0.975451 1
    endloop
  endfacet
  facet normal 0 0 1
    outer loop
      vertex 2.3097 0.956708 1
      vertex 4.6194 1.91342 1
      vertex 4.15735 2.77785 1
    endloop
  endfacet
  facet normal -0 0 1
    outer loop
      vertex 2.3097 -0.956708 1
      vertex 4.90393 -0.975451 1
      vertex 2.5 0 1
    endloop
  endfacet
  facet normal 0 0 1
    outer loop
      vertex 1.76777 1.76777 1
      vertex 4.15735 2.77785 1
      vertex 3.53553 3.53553 1
    endloop
  endfacet
  facet normal 0 0 1
    outer loop
      vertex 4.90393 -0.975451 1
      vertex 2.3097 -0.956708 1
      vertex 4.6194 -1.91342 1
    endloop
  endfacet
  facet normal 0 0 1
    outer loop
      vertex 1.76777 1.76777 1
      vertex 3.53553 3.53553 1
      vertex 2.77785 4.15735 1
    endloop
  endfacet
  facet normal 0 0 1
    outer loop
      vertex 4.6194 -1.91342 1
      vertex 2.3097 -0.956708 1
      vertex 4.15735 -2.77785 1
    endloop
  endfacet
  facet normal -0 0 1
    outer loop
      vertex 1.76777 -1.76777 1
      vertex 4.15735 -2.77785 1
      vertex 2.3097 -0.956708 1
    endloop
  endfacet
  facet normal 0 0 1
    outer loop
      vertex 4.90393 0.975451 1
      vertex 2.3097 0.956708 1
      vertex 2.5 0 1
    endloop
  endfacet
  facet normal 0 0 1
    outer loop
      vertex 0.956708 2.3097 1
      vertex 2.77785 4.15735 1
      vertex 1.91342 4.6194 1
    endloop
  endfacet
  facet normal 0 0 1
    outer loop
      vertex 4.15735 2.77785 1
      vertex 1.76777 1.76777 1
      vertex 2.3097 0.956708 1
    endloop
  endfacet
  facet normal 0 0 1
    outer loop
      vertex 0.956708 2.3097 1
      vertex 1.91342 4.6194 1
      vertex 0.975451 4.90393 1
    endloop
  endfacet
  facet normal 0 0 1
    outer loop
      vertex 2.77785 4.15735 1
      vertex 0.956708 2.3097 1
      vertex 1.76777 1.76777 1
    endloop
  endfacet
  facet normal 0 0 1
    outer loop
      vertex 0 2.5 1
      vertex 0.975451 4.90393 1
      vertex 0 5 1
    endloop
  endfacet
  facet normal 0 0 1
    outer loop
      vertex 0.975451 4.90393 1
      vertex 0 2.5 1
      vertex 0.956708 2.3097 1
    endloop
  endfacet
  facet normal -0 0 1
    outer loop
      vertex -0.975451 4.90393 1
      vertex 0 2.5 1
      vertex 0 5 1
    endloop
  endfacet
  facet normal 0 0 1
    outer loop
      vertex 0 2.5 1
      vertex -0.975451 4.90393 1
      vertex -0.956708 2.3097 1
    endloop
  endfacet
  facet normal -0 0 1
    outer loop
      vertex -1.91342 4.6194 1
      vertex -0.956708 2.3097 1
      vertex -0.975451 4.90393 1
    endloop
  endfacet
  facet normal -0 0 1
    outer loop
      vertex -2.77785 4.15735 1
      vertex -0.956708 2.3097 1
      vertex -1.91342 4.6194 1
    endloop
  endfacet
  facet normal 0 0 1
    outer loop
      vertex -0.956708 2.3097 1
      vertex -2.77785 4.15735 1
      vertex -1.76777 1.76777 1
    endloop
  endfacet
  facet normal -0 0 1
    outer loop
      vertex -3.53553 3.53553 1
      vertex -1.76777 1.76777 1
      vertex -2.77785 4.15735 1
    endloop
  endfacet
  facet normal -0 0 1
    outer loop
      vertex -4.15735 2.77785 1
      vertex -1.76777 1.76777 1
      vertex -3.53553 3.53553 1
    endloop
  endfacet
  facet normal 0 0 1
    outer loop
      vertex 4.15735 -2.77785 1
      vertex 1.76777 -1.76777 1
      vertex 3.53553 -3.53553 1
    endloop
  endfacet
  facet normal 0 0 1
    outer loop
      vertex 3.53553 -3.53553 1
      vertex 1.76777 -1.76777 1
      vertex 2.77785 -4.15735 1
    endloop
  endfacet
  facet normal -0 0 1
    outer loop
      vertex 0.956708 -2.3097 1
      vertex 2.77785 -4.15735 1
      vertex 1.76777 -1.76777 1
    endloop
  endfacet
  facet normal 0 0 1
    outer loop
      vertex 2.77785 -4.15735 1
      vertex 0.956708 -2.3097 1
      vertex 1.91342 -4.6194 1
    endloop
  endfacet
  facet normal 0 0 1
    outer loop
      vertex 1.91342 -4.6194 1
      vertex 0.956708 -2.3097 1
      vertex 0.975451 -4.90393 1
    endloop
  endfacet
  facet normal -0 0 1
    outer loop
      vertex 0 -2.5 1
      vertex 0.975451 -4.90393 1
      vertex 0.956708 -2.3097 1
    endloop
  endfacet
  facet normal 0 0 1
    outer loop
      vertex 0 -2.5 1
      vertex 0 -5 1
      vertex 0.975451 -4.90393 1
    endloop
  endfacet
  facet normal 0 0 1
    outer loop
      vertex -0.975451 -4.90393 1
      vertex 0 -2.5 1
      vertex -0.956708 -2.3097 1
    endloop
  endfacet
  facet normal 0 0 1
    outer loop
      vertex 0 -2.5 1
      vertex -0.975451 -4.90393 1
      vertex 0 -5 1
    endloop
  endfacet
  facet normal 0 0 1
    outer loop
      vertex -2.77785 -4.15735 1
      vertex -0.956708 -2.3097 1
      vertex -1.76777 -1.76777 1
    endloop
  endfacet
  facet normal 0 0 1
    outer loop
      vertex -0.956708 -2.3097 1
      vertex -1.91342 -4.6194 1
      vertex -0.975451 -4.90393 1
    endloop
  endfacet
  facet normal 0 0 1
    outer loop
      vertex -4.15735 -2.77785 1
      vertex -1.76777 -1.76777 1
      vertex -2.3097 -0.956708 1
    endloop
  endfacet
  facet normal 0 0 1
    outer loop
      vertex -4.90393 -0.975451 1
      vertex -2.3097 -0.956708 1
      vertex -2.5 0 1
    endloop
  endfacet
  facet normal 0 0 1
    outer loop
      vertex -0.956708 -2.3097 1
      vertex -2.77785 -4.15735 1
      vertex -1.91342 -4.6194 1
    endloop
  endfacet
  facet normal 0 0 1
    outer loop
      vertex -1.76777 1.76777 1
      vertex -4.15735 2.77785 1
      vertex -2.3097 0.956708 1
    endloop
  endfacet
  facet normal -0 0 1
    outer loop
      vertex -4.6194 1.91342 1
      vertex -2.3097 0.956708 1
      vertex -4.15735 2.77785 1
    endloop
  endfacet
  facet normal 0 0 1
    outer loop
      vertex -1.76777 -1.76777 1
      vertex -3.53553 -3.53553 1
      vertex -2.77785 -4.15735 1
    endloop
  endfacet
  facet normal -0 0 1
    outer loop
      vertex -4.90393 0.975451 1
      vertex -2.3097 0.956708 1
      vertex -4.6194 1.91342 1
    endloop
  endfacet
  facet normal 0 0 1
    outer loop
      vertex -1.76777 -1.76777 1
      vertex -4.15735 -2.77785 1
      vertex -3.53553 -3.53553 1
    endloop
  endfacet
  facet normal 0 0 1
    outer loop
      vertex -2.3097 0.956708 1
      vertex -4.90393 0.975451 1
      vertex -2.5 0 1
    endloop
  endfacet
  facet normal 0 0 1
    outer loop
      vertex -2.3097 -0.956708 1
      vertex -4.6194 -1.91342 1
      vertex -4.15735 -2.77785 1
    endloop
  endfacet
  facet normal 0 0 1
    outer loop
      vertex -5 0 1
      vertex -2.5 0 1
      vertex -4.90393 0.975451 1
    endloop
  endfacet
  facet normal 0 0 1
    outer loop
      vertex -2.3097 -0.956708 1
      vertex -4.90393 -0.975451 1
      vertex -4.6194 -1.91342 1
    endloop
  endfacet
  facet normal 0 0 1
    outer loop
      vertex -2.5 0 1
      vertex -5 0 1
      vertex -4.90393 -0.975451 1
    endloop
  endfacet
  facet normal 0.67829 -0.205757 -0.705398
    outer loop
      vertex 4.6194 -1.91342 1
      vertex 3.69552 -1.53073 0
      vertex 3.92314 -0.780361 0
    endloop
  endfacet
  facet normal 0.625116 -0.334131 -0.705398
    outer loop
      vertex 4.6194 -1.91342 1
      vertex 3.32588 -2.22228 0
      vertex 3.69552 -1.53073 0
    endloop
  endfacet
  facet normal 0.334131 -0.625116 -0.705398
    outer loop
      vertex 2.77785 -4.15735 1
      vertex 1.91342 -4.6194 1
      vertex 2.22228 -3.32588 0
    endloop
  endfacet
  facet normal 0.334131 -0.625116 -0.705398
    outer loop
      vertex 1.91342 -4.6194 1
      vertex 1.53073 -3.69552 0
      vertex 2.22228 -3.32588 0
    endloop
  endfacet
  facet normal 0.205757 -0.67829 -0.705398
    outer loop
      vertex 0.975451 -4.90393 1
      vertex 0.780361 -3.92314 0
      vertex 1.91342 -4.6194 1
    endloop
  endfacet
  facet normal 0.0694762 -0.705398 -0.705398
    outer loop
      vertex 0.975451 -4.90393 1
      vertex 0 -4 0
      vertex 0.780361 -3.92314 0
    endloop
  endfacet
  facet normal 0 0 -1
    outer loop
      vertex 3.92314 -0.780361 0
      vertex 3.92314 0.780361 0
      vertex 4 0 0
    endloop
  endfacet
  facet normal 0 0 -1
    outer loop
      vertex 3.69552 -1.53073 0
      vertex 3.92314 0.780361 0
      vertex 3.92314 -0.780361 0
    endloop
  endfacet
  facet normal 0 0 -1
    outer loop
      vertex 3.69552 -1.53073 0
      vertex 3.69552 1.53073 0
      vertex 3.92314 0.780361 0
    endloop
  endfacet
  facet normal 0 0 -1
    outer loop
      vertex 3.32588 -2.22228 0
      vertex 3.69552 1.53073 0
      vertex 3.69552 -1.53073 0
    endloop
  endfacet
  facet normal 0 0 -1
    outer loop
      vertex 3.32588 -2.22228 0
      vertex 3.32588 2.22228 0
      vertex 3.69552 1.53073 0
    endloop
  endfacet
  facet normal 0 0 -1
    outer loop
      vertex 2.82843 -2.82843 0
      vertex 3.32588 2.22228 0
      vertex 3.32588 -2.22228 0
    endloop
  endfacet
  facet normal 0 0 -1
    outer loop
      vertex 2.82843 -2.82843 0
      vertex 2.82843 2.82843 0
      vertex 3.32588 2.22228 0
    endloop
  endfacet
  facet normal 0 0 -1
    outer loop
      vertex 2.22228 -3.32588 0
      vertex 2.82843 2.82843 0
      vertex 2.82843 -2.82843 0
    endloop
  endfacet
  facet normal 0 0 -1
    outer loop
      vertex 2.22228 -3.32588 0
      vertex 2.22228 3.32588 0
      vertex 2.82843 2.82843 0
    endloop
  endfacet
  facet normal 0 0 -1
    outer loop
      vertex 1.53073 -3.69552 0
      vertex 2.22228 3.32588 0
      vertex 2.22228 -3.32588 0
    endloop
  endfacet
  facet normal 0 0 -1
    outer loop
      vertex 1.53073 -3.69552 0
      vertex 1.53073 3.69552 0
      vertex 2.22228 3.32588 0
    endloop
  endfacet
  facet normal 0 0 -1
    outer loop
      vertex 0.780361 -3.92314 0
      vertex 1.53073 3.69552 0
      vertex 1.53073 -3.69552 0
    endloop
  endfacet
  facet normal 0 0 -1
    outer loop
      vertex 0.780361 -3.92314 0
      vertex 0.780361 3.92314 0
      vertex 1.53073 3.69552 0
    endloop
  endfacet
  facet normal 0 0 -1
    outer loop
      vertex 0 -4 0
      vertex 0.780361 3.92314 0
      vertex 0.780361 -3.92314 0
    endloop
  endfacet
  facet normal 0 0 -1
    outer loop
      vertex 0 -4 0
      vertex 0 4 0
      vertex 0.780361 3.92314 0
    endloop
  endfacet
  facet normal 0 0 -1
    outer loop
      vertex -0.780361 -3.92314 0
      vertex 0 4 0
      vertex 0 -4 0
    endloop
  endfacet
  facet normal 0 0 -1
    outer loop
      vertex -0.780361 -3.92314 0
      vertex -0.780361 3.92314 0
      vertex 0 4 0
    endloop
  endfacet
  facet normal 0 0 -1
    outer loop
      vertex -1.53073 -3.69552 0
      vertex -0.780361 3.92314 0
      vertex -0.780361 -3.92314 0
    endloop
  endfacet
  facet normal 0 0 -1
    outer loop
      vertex -1.53073 -3.69552 0
      vertex -1.53073 3.69552 0
      vertex -0.780361 3.92314 0
    endloop
  endfacet
  facet normal 0 0 -1
    outer loop
      vertex -2.22228 -3.32588 0
      vertex -1.53073 3.69552 0
      vertex -1.53073 -3.69552 0
    endloop
  endfacet
  facet normal 0 0 -1
    outer loop
      vertex -2.22228 -3.32588 0
      vertex -2.22228 3.32588 0
      vertex -1.53073 3.69552 0
    endloop
  endfacet
  facet normal 0 0 -1
    outer loop
      vertex -2.82843 -2.82843 0
      vertex -2.22228 3.32588 0
      vertex -2.22228 -3.32588 0
    endloop
  endfacet
  facet normal 0 0 -1
    outer loop
      vertex -2.82843 -2.82843 0
      vertex -2.82843 2.82843 0
      vertex -2.22228 3.32588 0
    endloop
  endfacet
  facet normal 0 0 -1
    outer loop
      vertex -3.32588 -2.22228 0
      vertex -2.82843 2.82843 0
      vertex -2.82843 -2.82843 0
    endloop
  endfacet
  facet normal 0 0 -1
    outer loop
      vertex -3.32588 -2.22228 0
      vertex -3.32588 2.22228 0
      vertex -2.82843 2.82843 0
    endloop
  endfacet
  facet normal 0 0 -1
    outer loop
      vertex -3.69552 -1.53073 0
      vertex -3.32588 2.22228 0
      vertex -3.32588 -2.22228 0
    endloop
  endfacet
  facet normal 0 0 -1
    outer loop
      vertex -3.69552 -1.53073 0
      vertex -3.69552 1.53073 0
      vertex -3.32588 2.22228 0
    endloop
  endfacet
  facet normal 0 0 -1
    outer loop
      vertex -3.92314 -0.780361 0
      vertex -3.69552 1.53073 0
      vertex -3.69552 -1.53073 0
    endloop
  endfacet
  facet normal 0 0 -1
    outer loop
      vertex -3.92314 -0.780361 0
      vertex -3.92314 0.780361 0
      vertex -3.69552 1.53073 0
    endloop
  endfacet
  facet normal 0 -0 -1
    outer loop
      vertex -3.92314 0.780361 0
      vertex -3.92314 -0.780361 0
      vertex -4 0 0
    endloop
  endfacet
  facet normal -0.67829 -0.205757 -0.705398
    outer loop
      vertex -4.6194 -1.91342 1
      vertex -4.90393 -0.975451 1
      vertex -3.92314 -0.780361 0
    endloop
  endfacet
  facet normal -0.547919 -0.449665 -0.705398
    outer loop
      vertex -3.53553 -3.53553 1
      vertex -4.15735 -2.77785 1
      vertex -3.32588 -2.22228 0
    endloop
  endfacet
  facet normal -0.547918 -0.449665 -0.705399
    outer loop
      vertex -2.82843 -2.82843 0
      vertex -3.53553 -3.53553 1
      vertex -3.32588 -2.22228 0
    endloop
  endfacet
  facet normal -0.205757 -0.67829 -0.705398
    outer loop
      vertex -0.975451 -4.90393 1
      vertex -1.91342 -4.6194 1
      vertex -0.780361 -3.92314 0
    endloop
  endfacet
  facet normal -0.069476 -0.705398 -0.705398
    outer loop
      vertex 0 -5 1
      vertex -0.975451 -4.90393 1
      vertex 0 -4 0
    endloop
  endfacet
  facet normal 0.334131 0.625116 -0.705398
    outer loop
      vertex 2.22228 3.32588 0
      vertex 1.53073 3.69552 0
      vertex 1.91342 4.6194 1
    endloop
  endfacet
  facet normal 0.449665 0.547919 -0.705398
    outer loop
      vertex 3.53553 3.53553 1
      vertex 2.22228 3.32588 0
      vertex 2.77785 4.15735 1
    endloop
  endfacet
  facet normal -0.547918 0.449665 -0.705399
    outer loop
      vertex -3.32588 2.22228 0
      vertex -3.53553 3.53553 1
      vertex -2.82843 2.82843 0
    endloop
  endfacet
  facet normal -0.547919 0.449665 -0.705398
    outer loop
      vertex -3.32588 2.22228 0
      vertex -4.15735 2.77785 1
      vertex -3.53553 3.53553 1
    endloop
  endfacet
  facet normal -0.205757 0.67829 -0.705398
    outer loop
      vertex -1.53073 3.69552 0
      vertex -1.91342 4.6194 1
      vertex -0.780361 3.92314 0
    endloop
  endfacet
  facet normal -0.705398 0.069476 -0.705398
    outer loop
      vertex -4 0 0
      vertex -5 0 1
      vertex -4.90393 0.975451 1
    endloop
  endfacet
  facet normal -0.705398 -0.069476 -0.705398
    outer loop
      vertex -4.90393 -0.975451 1
      vertex -5 0 1
      vertex -4 0 0
    endloop
  endfacet
  facet normal 0.625116 -0.334131 -0.705398
    outer loop
      vertex 4.15735 -2.77785 1
      vertex 3.32588 -2.22228 0
      vertex 4.6194 -1.91342 1
    endloop
  endfacet
  facet normal 0.547919 -0.449665 -0.705398
    outer loop
      vertex 3.53553 -3.53553 1
      vertex 3.32588 -2.22228 0
      vertex 4.15735 -2.77785 1
    endloop
  endfacet
  facet normal 0.449665 -0.547918 -0.705399
    outer loop
      vertex 3.53553 -3.53553 1
      vertex 2.22228 -3.32588 0
      vertex 2.82843 -2.82843 0
    endloop
  endfacet
  facet normal -0.625116 -0.334131 -0.705398
    outer loop
      vertex -4.15735 -2.77785 1
      vertex -4.6194 -1.91342 1
      vertex -3.32588 -2.22228 0
    endloop
  endfacet
  facet normal -0.334131 -0.625116 -0.705398
    outer loop
      vertex -1.91342 -4.6194 1
      vertex -2.22228 -3.32588 0
      vertex -1.53073 -3.69552 0
    endloop
  endfacet
  facet normal -0.334131 -0.625116 -0.705398
    outer loop
      vertex -1.91342 -4.6194 1
      vertex -2.77785 -4.15735 1
      vertex -2.22228 -3.32588 0
    endloop
  endfacet
  facet normal -0.449665 -0.547918 -0.705399
    outer loop
      vertex -2.22228 -3.32588 0
      vertex -3.53553 -3.53553 1
      vertex -2.82843 -2.82843 0
    endloop
  endfacet
  facet normal 0.334131 0.625116 -0.705398
    outer loop
      vertex 2.22228 3.32588 0
      vertex 1.91342 4.6194 1
      vertex 2.77785 4.15735 1
    endloop
  endfacet
  facet normal 0.069476 0.705398 -0.705398
    outer loop
      vertex 0.975451 4.90393 1
      vertex 0 4 0
      vertex 0 5 1
    endloop
  endfacet
  facet normal -0.069476 0.705398 -0.705398
    outer loop
      vertex 0 4 0
      vertex -0.975451 4.90393 1
      vertex 0 5 1
    endloop
  endfacet
  facet normal 0.625116 0.334131 -0.705398
    outer loop
      vertex 4.6194 1.91342 1
      vertex 3.32588 2.22228 0
      vertex 4.15735 2.77785 1
    endloop
  endfacet
  facet normal 0.547919 0.449665 -0.705398
    outer loop
      vertex 4.15735 2.77785 1
      vertex 3.32588 2.22228 0
      vertex 3.53553 3.53553 1
    endloop
  endfacet
  facet normal -0.67829 0.205757 -0.705398
    outer loop
      vertex -3.92314 0.780361 0
      vertex -4.90393 0.975451 1
      vertex -4.6194 1.91342 1
    endloop
  endfacet
  facet normal -0.334131 0.625116 -0.705398
    outer loop
      vertex -2.22228 3.32588 0
      vertex -2.77785 4.15735 1
      vertex -1.91342 4.6194 1
    endloop
  endfacet
  facet normal -0.67829 -0.205757 -0.705398
    outer loop
      vertex -3.69552 -1.53073 0
      vertex -4.6194 -1.91342 1
      vertex -3.92314 -0.780361 0
    endloop
  endfacet
  facet normal -0.205757 -0.67829 -0.705398
    outer loop
      vertex -0.780361 -3.92314 0
      vertex -1.91342 -4.6194 1
      vertex -1.53073 -3.69552 0
    endloop
  endfacet
  facet normal 0.0694762 0.705398 -0.705398
    outer loop
      vertex 0.780361 3.92314 0
      vertex 0 4 0
      vertex 0.975451 4.90393 1
    endloop
  endfacet
  facet normal 0.205757 0.67829 -0.705398
    outer loop
      vertex 1.91342 4.6194 1
      vertex 0.780361 3.92314 0
      vertex 0.975451 4.90393 1
    endloop
  endfacet
  facet normal 0.67829 0.205757 -0.705398
    outer loop
      vertex 4.90393 0.975451 1
      vertex 3.92314 0.780361 0
      vertex 4.6194 1.91342 1
    endloop
  endfacet
  facet normal 0.625116 0.334131 -0.705398
    outer loop
      vertex 3.69552 1.53073 0
      vertex 3.32588 2.22228 0
      vertex 4.6194 1.91342 1
    endloop
  endfacet
  facet normal 0.449665 0.547918 -0.705399
    outer loop
      vertex 2.82843 2.82843 0
      vertex 2.22228 3.32588 0
      vertex 3.53553 3.53553 1
    endloop
  endfacet
  facet normal 0.547918 0.449665 -0.705399
    outer loop
      vertex 3.32588 2.22228 0
      vertex 2.82843 2.82843 0
      vertex 3.53553 3.53553 1
    endloop
  endfacet
  facet normal -0.625116 0.334131 -0.705398
    outer loop
      vertex -3.32588 2.22228 0
      vertex -4.6194 1.91342 1
      vertex -4.15735 2.77785 1
    endloop
  endfacet
  facet normal -0.67829 0.205757 -0.705398
    outer loop
      vertex -3.92314 0.780361 0
      vertex -4.6194 1.91342 1
      vertex -3.69552 1.53073 0
    endloop
  endfacet
  facet normal -0.449665 0.547919 -0.705398
    outer loop
      vertex -2.22228 3.32588 0
      vertex -3.53553 3.53553 1
      vertex -2.77785 4.15735 1
    endloop
  endfacet
  facet normal -0.449665 0.547918 -0.705399
    outer loop
      vertex -2.82843 2.82843 0
      vertex -3.53553 3.53553 1
      vertex -2.22228 3.32588 0
    endloop
  endfacet
  facet normal -0.334131 0.625116 -0.705398
    outer loop
      vertex -1.53073 3.69552 0
      vertex -2.22228 3.32588 0
      vertex -1.91342 4.6194 1
    endloop
  endfacet
  facet normal 0.205757 0.67829 -0.705398
    outer loop
      vertex 1.53073 3.69552 0
      vertex 0.780361 3.92314 0
      vertex 1.91342 4.6194 1
    endloop
  endfacet
  facet normal 0.67829 0.205757 -0.705398
    outer loop
      vertex 3.92314 0.780361 0
      vertex 3.69552 1.53073 0
      vertex 4.6194 1.91342 1
    endloop
  endfacet
  facet normal -0.625116 0.334131 -0.705398
    outer loop
      vertex -3.69552 1.53073 0
      vertex -4.6194 1.91342 1
      vertex -3.32588 2.22228 0
    endloop
  endfacet
  facet normal 0.980785 0.195091 0
    outer loop
      vertex 2.5 0 4
      vertex 2.3097 0.956708 1
      vertex 2.3097 0.956708 4
    endloop
  endfacet
  facet normal 0.980785 0.195091 0
    outer loop
      vertex 2.3097 0.956708 1
      vertex 2.5 0 4
      vertex 2.5 0 1
    endloop
  endfacet
  facet normal -0.980785 0.195091 0
    outer loop
      vertex -2.5 0 1
      vertex -2.3097 0.956708 4
      vertex -2.3097 0.956708 1
    endloop
  endfacet
  facet normal -0.980785 0.195091 0
    outer loop
      vertex -2.3097 0.956708 4
      vertex -2.5 0 1
      vertex -2.5 0 4
    endloop
  endfacet
  facet normal 0.195091 0.980785 -0
    outer loop
      vertex 0.956708 2.3097 1
      vertex 0 2.5 4
      vertex 0.956708 2.3097 4
    endloop
  endfacet
  facet normal 0.195091 0.980785 0
    outer loop
      vertex 0 2.5 4
      vertex 0.956708 2.3097 1
      vertex 0 2.5 1
    endloop
  endfacet
  facet normal 0.83147 0.555569 0
    outer loop
      vertex 2.3097 0.956708 4
      vertex 1.76777 1.76777 1
      vertex 1.76777 1.76777 4
    endloop
  endfacet
  facet normal 0.83147 0.555569 0
    outer loop
      vertex 1.76777 1.76777 1
      vertex 2.3097 0.956708 4
      vertex 2.3097 0.956708 1
    endloop
  endfacet
  facet normal -0.195091 -0.980785 0
    outer loop
      vertex -0.956708 -2.3097 1
      vertex 0 -2.5 4
      vertex -0.956708 -2.3097 4
    endloop
  endfacet
  facet normal -0.195091 -0.980785 -0
    outer loop
      vertex 0 -2.5 4
      vertex -0.956708 -2.3097 1
      vertex 0 -2.5 1
    endloop
  endfacet
  facet normal 0.555569 0.83147 -0
    outer loop
      vertex 1.76777 1.76777 1
      vertex 0.956708 2.3097 4
      vertex 1.76777 1.76777 4
    endloop
  endfacet
  facet normal 0.555569 0.83147 0
    outer loop
      vertex 0.956708 2.3097 4
      vertex 1.76777 1.76777 1
      vertex 0.956708 2.3097 1
    endloop
  endfacet
  facet normal -0.555569 0.83147 0
    outer loop
      vertex -0.956708 2.3097 1
      vertex -1.76777 1.76777 4
      vertex -0.956708 2.3097 4
    endloop
  endfacet
  facet normal -0.555569 0.83147 0
    outer loop
      vertex -1.76777 1.76777 4
      vertex -0.956708 2.3097 1
      vertex -1.76777 1.76777 1
    endloop
  endfacet
  facet normal -0.83147 0.555569 0
    outer loop
      vertex -2.3097 0.956708 1
      vertex -1.76777 1.76777 4
      vertex -1.76777 1.76777 1
    endloop
  endfacet
  facet normal -0.83147 0.555569 0
    outer loop
      vertex -1.76777 1.76777 4
      vertex -2.3097 0.956708 1
      vertex -2.3097 0.956708 4
    endloop
  endfacet
  facet normal -0.195091 0.980785 0
    outer loop
      vertex 0 2.5 1
      vertex -0.956708 2.3097 4
      vertex 0 2.5 4
    endloop
  endfacet
  facet normal -0.195091 0.980785 0
    outer loop
      vertex -0.956708 2.3097 4
      vertex 0 2.5 1
      vertex -0.956708 2.3097 1
    endloop
  endfacet
  facet normal -0.555569 -0.83147 0
    outer loop
      vertex -1.76777 -1.76777 1
      vertex -0.956708 -2.3097 4
      vertex -1.76777 -1.76777 4
    endloop
  endfacet
  facet normal -0.555569 -0.83147 -0
    outer loop
      vertex -0.956708 -2.3097 4
      vertex -1.76777 -1.76777 1
      vertex -0.956708 -2.3097 1
    endloop
  endfacet
  facet normal -0.980785 -0.195091 0
    outer loop
      vertex -2.3097 -0.956708 1
      vertex -2.5 0 4
      vertex -2.5 0 1
    endloop
  endfacet
  facet normal -0.980785 -0.195091 0
    outer loop
      vertex -2.5 0 4
      vertex -2.3097 -0.956708 1
      vertex -2.3097 -0.956708 4
    endloop
  endfacet
  facet normal 0.980785 -0.195091 0
    outer loop
      vertex 2.3097 -0.956708 4
      vertex 2.5 0 1
      vertex 2.5 0 4
    endloop
  endfacet
  facet normal 0.980785 -0.195091 0
    outer loop
      vertex 2.5 0 1
      vertex 2.3097 -0.956708 4
      vertex 2.3097 -0.956708 1
    endloop
  endfacet
  facet normal 0.555569 -0.83147 0
    outer loop
      vertex 0.956708 -2.3097 1
      vertex 1.76777 -1.76777 4
      vertex 0.956708 -2.3097 4
    endloop
  endfacet
  facet normal 0.555569 -0.83147 0
    outer loop
      vertex 1.76777 -1.76777 4
      vertex 0.956708 -2.3097 1
      vertex 1.76777 -1.76777 1
    endloop
  endfacet
  facet normal 0.195091 -0.980785 0
    outer loop
      vertex 0 -2.5 1
      vertex 0.956708 -2.3097 4
      vertex 0 -2.5 4
    endloop
  endfacet
  facet normal 0.195091 -0.980785 0
    outer loop
      vertex 0.956708 -2.3097 4
      vertex 0 -2.5 1
      vertex 0.956708 -2.3097 1
    endloop
  endfacet
  facet normal 0.83147 -0.555569 0
    outer loop
      vertex 1.76777 -1.76777 4
      vertex 2.3097 -0.956708 1
      vertex 2.3097 -0.956708 4
    endloop
  endfacet
  facet normal 0.83147 -0.555569 0
    outer loop
      vertex 2.3097 -0.956708 1
      vertex 1.76777 -1.76777 4
      vertex 1.76777 -1.76777 1
    endloop
  endfacet
  facet normal -0.83147 -0.555569 0
    outer loop
      vertex -1.76777 -1.76777 1
      vertex -2.3097 -0.956708 4
      vertex -2.3097 -0.956708 1
    endloop
  endfacet
  facet normal -0.83147 -0.555569 0
    outer loop
      vertex -2.3097 -0.956708 4
      vertex -1.76777 -1.76777 1
      vertex -1.76777 -1.76777 4
    endloop
  endfacet
  facet normal 0.880599 0.175163 0.440299
    outer loop
      vertex 2.3097 0.956708 4
      vertex 1.5 0 6
      vertex 2.5 0 4
    endloop
  endfacet
  facet normal 0.746536 0.498818 0.4403
    outer loop
      vertex 1.76777 1.76777 4
      vertex 1.38582 0.574024 6
      vertex 2.3097 0.956708 4
    endloop
  endfacet
  facet normal 0.498819 0.746536 0.4403
    outer loop
      vertex 1.76777 1.76777 4
      vertex 0.574024 1.38582 6
      vertex 1.06066 1.06066 6
    endloop
  endfacet
  facet normal 0.498819 -0.746536 0.4403
    outer loop
      vertex 1.06066 -1.06066 6
      vertex 0.574024 -1.38582 6
      vertex 1.76777 -1.76777 4
    endloop
  endfacet
  facet normal 0.175163 -0.880599 0.440299
    outer loop
      vertex 0 -1.5 6
      vertex 0 -2.5 4
      vertex 0.956708 -2.3097 4
    endloop
  endfacet
  facet normal 0.175164 -0.880599 0.4403
    outer loop
      vertex 0.574024 -1.38582 6
      vertex 0 -1.5 6
      vertex 0.956708 -2.3097 4
    endloop
  endfacet
  facet normal 0.880599 -0.175163 0.440299
    outer loop
      vertex 2.5 0 4
      vertex 1.5 0 6
      vertex 2.3097 -0.956708 4
    endloop
  endfacet
  facet normal 0.746536 0.498819 0.4403
    outer loop
      vertex 1.76777 1.76777 4
      vertex 1.06066 1.06066 6
      vertex 1.38582 0.574024 6
    endloop
  endfacet
  facet normal 0.498818 0.746536 0.4403
    outer loop
      vertex 0.956708 2.3097 4
      vertex 0.574024 1.38582 6
      vertex 1.76777 1.76777 4
    endloop
  endfacet
  facet normal 0.175164 0.880599 0.4403
    outer loop
      vertex 0.956708 2.3097 4
      vertex 0 1.5 6
      vertex 0.574024 1.38582 6
    endloop
  endfacet
  facet normal 0.175163 0.880599 0.440299
    outer loop
      vertex 0 2.5 4
      vertex 0 1.5 6
      vertex 0.956708 2.3097 4
    endloop
  endfacet
  facet normal -0.746536 0.498818 0.4403
    outer loop
      vertex -1.76777 1.76777 4
      vertex -2.3097 0.956708 4
      vertex -1.38582 0.574024 6
    endloop
  endfacet
  facet normal -0.746536 0.498819 0.4403
    outer loop
      vertex -1.06066 1.06066 6
      vertex -1.76777 1.76777 4
      vertex -1.38582 0.574024 6
    endloop
  endfacet
  facet normal -0.880599 0.175163 0.440299
    outer loop
      vertex -2.3097 0.956708 4
      vertex -2.5 0 4
      vertex -1.5 0 6
    endloop
  endfacet
  facet normal 0.498818 -0.746536 0.4403
    outer loop
      vertex 1.76777 -1.76777 4
      vertex 0.574024 -1.38582 6
      vertex 0.956708 -2.3097 4
    endloop
  endfacet
  facet normal 0.880599 0.175164 0.4403
    outer loop
      vertex 2.3097 0.956708 4
      vertex 1.38582 0.574024 6
      vertex 1.5 0 6
    endloop
  endfacet
  facet normal -0.175164 0.880599 0.4403
    outer loop
      vertex 0 1.5 6
      vertex -0.956708 2.3097 4
      vertex -0.574024 1.38582 6
    endloop
  endfacet
  facet normal -0.175163 0.880599 0.440299
    outer loop
      vertex 0 2.5 4
      vertex -0.956708 2.3097 4
      vertex 0 1.5 6
    endloop
  endfacet
  facet normal -0.880599 0.175164 0.4403
    outer loop
      vertex -1.38582 0.574024 6
      vertex -2.3097 0.956708 4
      vertex -1.5 0 6
    endloop
  endfacet
  facet normal 0 0 1
    outer loop
      vertex 1.38582 0.574024 6
      vertex 1.38582 -0.574024 6
      vertex 1.5 0 6
    endloop
  endfacet
  facet normal 0 0 1
    outer loop
      vertex 1.06066 1.06066 6
      vertex 1.38582 -0.574024 6
      vertex 1.38582 0.574024 6
    endloop
  endfacet
  facet normal 0 0 1
    outer loop
      vertex 1.06066 1.06066 6
      vertex 1.06066 -1.06066 6
      vertex 1.38582 -0.574024 6
    endloop
  endfacet
  facet normal 0 0 1
    outer loop
      vertex 0.574024 1.38582 6
      vertex 1.06066 -1.06066 6
      vertex 1.06066 1.06066 6
    endloop
  endfacet
  facet normal 0 0 1
    outer loop
      vertex 0.574024 1.38582 6
      vertex 0.574024 -1.38582 6
      vertex 1.06066 -1.06066 6
    endloop
  endfacet
  facet normal 0 0 1
    outer loop
      vertex 0 1.5 6
      vertex 0.574024 -1.38582 6
      vertex 0.574024 1.38582 6
    endloop
  endfacet
  facet normal 0 0 1
    outer loop
      vertex 0 1.5 6
      vertex 0 -1.5 6
      vertex 0.574024 -1.38582 6
    endloop
  endfacet
  facet normal -0 0 1
    outer loop
      vertex -0.574024 1.38582 6
      vertex 0 -1.5 6
      vertex 0 1.5 6
    endloop
  endfacet
  facet normal 0 0 1
    outer loop
      vertex -0.574024 1.38582 6
      vertex -0.574024 -1.38582 6
      vertex 0 -1.5 6
    endloop
  endfacet
  facet normal -0 0 1
    outer loop
      vertex -1.06066 1.06066 6
      vertex -0.574024 -1.38582 6
      vertex -0.574024 1.38582 6
    endloop
  endfacet
  facet normal 0 0 1
    outer loop
      vertex -1.06066 1.06066 6
      vertex -1.06066 -1.06066 6
      vertex -0.574024 -1.38582 6
    endloop
  endfacet
  facet normal -0 0 1
    outer loop
      vertex -1.38582 0.574024 6
      vertex -1.06066 -1.06066 6
      vertex -1.06066 1.06066 6
    endloop
  endfacet
  facet normal 0 0 1
    outer loop
      vertex -1.38582 0.574024 6
      vertex -1.38582 -0.574024 6
      vertex -1.06066 -1.06066 6
    endloop
  endfacet
  facet normal 0 -0 1
    outer loop
      vertex -1.38582 -0.574024 6
      vertex -1.38582 0.574024 6
      vertex -1.5 0 6
    endloop
  endfacet
  facet normal -0.498818 -0.746536 0.4403
    outer loop
      vertex -0.574024 -1.38582 6
      vertex -1.76777 -1.76777 4
      vertex -0.956708 -2.3097 4
    endloop
  endfacet
  facet normal -0.880599 -0.175164 0.4403
    outer loop
      vertex -1.5 0 6
      vertex -2.3097 -0.956708 4
      vertex -1.38582 -0.574024 6
    endloop
  endfacet
  facet normal -0.880599 -0.175163 0.440299
    outer loop
      vertex -1.5 0 6
      vertex -2.5 0 4
      vertex -2.3097 -0.956708 4
    endloop
  endfacet
  facet normal -0.498819 -0.746536 0.4403
    outer loop
      vertex -1.06066 -1.06066 6
      vertex -1.76777 -1.76777 4
      vertex -0.574024 -1.38582 6
    endloop
  endfacet
  facet normal -0.175163 -0.880599 0.440299
    outer loop
      vertex 0 -1.5 6
      vertex -0.956708 -2.3097 4
      vertex 0 -2.5 4
    endloop
  endfacet
  facet normal 0.746536 -0.498819 0.4403
    outer loop
      vertex 1.38582 -0.574024 6
      vertex 1.06066 -1.06066 6
      vertex 1.76777 -1.76777 4
    endloop
  endfacet
  facet normal -0.498818 0.746536 0.4403
    outer loop
      vertex -0.956708 2.3097 4
      vertex -1.76777 1.76777 4
      vertex -0.574024 1.38582 6
    endloop
  endfacet
  facet normal -0.498819 0.746536 0.4403
    outer loop
      vertex -0.574024 1.38582 6
      vertex -1.76777 1.76777 4
      vertex -1.06066 1.06066 6
    endloop
  endfacet
  facet normal -0.746536 -0.498818 0.4403
    outer loop
      vertex -1.38582 -0.574024 6
      vertex -2.3097 -0.956708 4
      vertex -1.76777 -1.76777 4
    endloop
  endfacet
  facet normal -0.746536 -0.498819 0.4403
    outer loop
      vertex -1.38582 -0.574024 6
      vertex -1.76777 -1.76777 4
      vertex -1.06066 -1.06066 6
    endloop
  endfacet
  facet normal -0.175164 -0.880599 0.4403
    outer loop
      vertex -0.574024 -1.38582 6
      vertex -0.956708 -2.3097 4
      vertex 0 -1.5 6
    endloop
  endfacet
  facet normal 0.746536 -0.498818 0.4403
    outer loop
      vertex 2.3097 -0.956708 4
      vertex 1.38582 -0.574024 6
      vertex 1.76777 -1.76777 4
    endloop
  endfacet
  facet normal 0.880599 -0.175164 0.4403
    outer loop
      vertex 1.5 0 6
      vertex 1.38582 -0.574024 6
      vertex 2.3097 -0.956708 4
    endloop
  endfacet
endsolid OpenSCAD_Model
